<svg id="Capa_1" enable-background="new 0 0 497 497" height="512" viewBox="0 0 497 497" width="512" xmlns="http://www.w3.org/2000/svg"><g><path d="m138.202 370.933 23.722 54.11-23.722 54.11h-61.86c0-78.15 61.81-108.2 61.86-108.22z" fill="#fed2a4"/><path d="m272.622 370.933-23.562 56.415 23.562 51.805h61.86c0-78.15-61.81-108.2-61.86-108.22z" fill="#fed2a4"/><path d="m138.202 370.933h134.42v108.22h-134.42z" fill="#60d9a7"/><circle cx="67.242" cy="72.712" fill="#423e4f" r="54.865"/><path d="m398.446 226.018c0-106.44-86.595-193.035-193.034-193.035-106.44 0-193.035 86.595-193.035 193.035z" fill="#5c586f"/><path d="m79.704 220.418c0-76.145 38.627-143.63 98.106-185.453-93.41 13.434-165.433 93.984-165.433 191.053h67.401c-.047-1.862-.074-3.728-.074-5.6z" fill="#4f4c5f"/><circle cx="365.127" cy="226.018" fill="#ffbd86" r="45.697"/><path d="m358.619 180.785s-103.907-4.725-153.207-55.72c-49.3 50.995-153.207 55.72-153.207 55.72-4.228 14.343-6.508 29.521-6.508 45.234 0 88.208 71.507 159.715 159.715 159.715s159.715-71.507 159.715-159.715c0-15.713-2.28-30.891-6.508-45.234z" fill="#fed2a4"/><path d="m371.649 364.646-50.569 33.134c-13.484 8.835-17.253 26.929-8.418 40.413 2.41 3.678 7.344 4.706 11.022 2.296l68.326-44.768z" fill="#b2b0bc"/><path d="m455.717 331.771-37.747-18.189-50.779 33.271c-16.585 10.867-21.221 33.121-10.354 49.705 10.867 16.585 33.121 21.22 49.706 10.354l50.779-33.271z" fill="#90d3f1"/><path d="m392.877 330.024 39.351 60.059 25.094-16.442-1.605-41.87-37.747-18.189z" fill="#59c2e7"/><path d="m493.464 349.961-39.352-60.059c-6.539-9.98-19.931-12.77-29.911-6.231s-12.77 19.931-6.231 29.911l39.352 60.059c6.539 9.98 19.931 12.77 29.911 6.231 9.981-6.539 12.77-19.931 6.231-29.911z" fill="#90d3f1"/><path d="m138.287 370.972c-36.494-40.329-58.583-92.968-58.583-150.554 0-14.772 1.471-29.213 4.248-43.209-18.851 2.987-31.747 3.576-31.747 3.576-.001.002-.001.004-.002.006-2.126-.303-4.296-.469-6.506-.469-25.238-.001-45.697 20.458-45.697 45.696s20.459 45.697 45.697 45.697c2.212 0 4.382-.172 6.509-.477 13.055 44.291 44.782 80.577 86.081 99.734z" fill="#ffbd86"/><g><g><g><ellipse cx="113.586" cy="252.407" fill="#ff9db0" rx="33.882" ry="26.982"/></g><g><ellipse cx="297.237" cy="252.407" fill="#ff9db0" rx="33.882" ry="26.982"/></g></g></g><g><path d="m149.459 230.546c-4.143 0-7.5-3.358-7.5-7.5 0-4.757-3.87-8.627-8.627-8.627s-8.627 3.87-8.627 8.627c0 4.142-3.357 7.5-7.5 7.5s-7.5-3.358-7.5-7.5c0-13.028 10.599-23.627 23.627-23.627s23.627 10.599 23.627 23.627c0 4.142-3.357 7.5-7.5 7.5z" fill="#423e4f"/></g><g><path d="m293.618 230.546c-4.143 0-7.5-3.358-7.5-7.5 0-4.757-3.87-8.627-8.627-8.627s-8.627 3.87-8.627 8.627c0 4.142-3.357 7.5-7.5 7.5s-7.5-3.358-7.5-7.5c0-13.028 10.599-23.627 23.627-23.627s23.627 10.599 23.627 23.627c0 4.142-3.357 7.5-7.5 7.5z" fill="#423e4f"/></g><g><path d="m222.521 257.189c-2.093 0-4.174-.871-5.657-2.573-2.892-3.318-7.065-5.221-11.452-5.221s-8.562 1.903-11.454 5.221c-2.722 3.123-7.459 3.448-10.581.726-3.123-2.722-3.447-7.459-.726-10.582 5.741-6.587 14.037-10.366 22.761-10.366s17.021 3.778 22.761 10.366c2.722 3.123 2.396 7.86-.727 10.582-1.422 1.239-3.177 1.847-4.925 1.847z" fill="#423e4f"/></g></g></svg>